<?xml version="1.0" encoding="UTF-8"?>
<svg width="128" height="128" viewBox="0 0 128 128" fill="none" xmlns="http://www.w3.org/2000/svg">
  <rect width="128" height="128" rx="24" fill="#2563EB"/>
  <path d="M64 28C44.118 28 28 44.118 28 64C28 83.882 44.118 100 64 100C83.882 100 100 83.882 100 64C100 44.118 83.882 28 64 28ZM64 39.5C65.933 39.5 67.5 41.067 67.5 43C67.5 44.933 65.933 46.5 64 46.5C62.067 46.5 60.5 44.933 60.5 43C60.5 41.067 62.067 39.5 64 39.5ZM64 88.5C62.067 88.5 60.5 86.933 60.5 85C60.5 83.067 62.067 81.5 64 81.5C65.933 81.5 67.5 83.067 67.5 85C67.5 86.933 65.933 88.5 64 88.5ZM85 67.5C83.067 67.5 81.5 65.933 81.5 64C81.5 62.067 83.067 60.5 85 60.5C86.933 60.5 88.5 62.067 88.5 64C88.5 65.933 86.933 67.5 85 67.5ZM43 67.5C41.067 67.5 39.5 65.933 39.5 64C39.5 62.067 41.067 60.5 43 60.5C44.933 60.5 46.5 62.067 46.5 64C46.5 65.933 44.933 67.5 43 67.5Z" fill="white"/>
  <path d="M64 55C59.0294 55 55 59.0294 55 64C55 68.9706 59.0294 73 64 73C68.9706 73 73 68.9706 73 64C73 59.0294 68.9706 55 64 55Z" fill="white"/>
</svg>